<svg xmlns="http://www.w3.org/2000/svg" version="1.1" xmlns:xlink="http://www.w3.org/1999/xlink" xmlns:svgjs="http://svgjs.dev/svgjs" width="1000" height="368" viewBox="0 0 1000 368"><g transform="matrix(1,0,0,1,-0.6060362508159756,0.6026992648444036)"><svg viewBox="0 0 396 146" data-background-color="#ffffff" preserveAspectRatio="xMidYMid meet" height="368" width="1000" xmlns="http://www.w3.org/2000/svg" xmlns:xlink="http://www.w3.org/1999/xlink"><g id="tight-bounds" transform="matrix(1,0,0,1,0.23999035532312973,-0.23911438224804726)"><svg viewBox="0 0 395.52 146.4782287644961" height="146.4782287644961" width="395.52"><g><svg viewBox="0 0 395.52 146.4782287644961" height="146.4782287644961" width="395.52"><g transform="matrix(1,0,0,1,0,90.52942179155256)"><svg viewBox="0 0 395.52 55.94880697294352" height="55.94880697294352" width="395.52"><g id="textblocktransform"><svg viewBox="0 0 395.52 55.94880697294352" height="55.94880697294352" width="395.52" id="textblock"><g><svg viewBox="0 0 395.52 55.94880697294352" height="55.94880697294352" width="395.52"><g transform="matrix(1,0,0,1,0,0)"><svg width="395.52" viewBox="2.25 -38.5 275.3299865722656 38.95000076293945" height="55.94880697294352" data-palette-color="#085f63"><path d="M13.75 0.45Q10.5 0.45 7.93-0.73 5.35-1.9 3.85-3.93 2.35-5.95 2.25-8.45L2.25-8.45 8.15-8.45Q8.3-6.7 9.83-5.53 11.35-4.35 13.65-4.35L13.65-4.35Q16.05-4.35 17.38-5.28 18.7-6.2 18.7-7.65L18.7-7.65Q18.7-9.2 17.23-9.95 15.75-10.7 12.55-11.6L12.55-11.6Q9.45-12.45 7.5-13.25 5.55-14.05 4.13-15.7 2.7-17.35 2.7-20.05L2.7-20.05Q2.7-22.25 4-24.08 5.3-25.9 7.73-26.95 10.15-28 13.3-28L13.3-28Q18-28 20.88-25.63 23.75-23.25 23.95-19.15L23.95-19.15 18.25-19.15Q18.1-21 16.75-22.1 15.4-23.2 13.1-23.2L13.1-23.2Q10.85-23.2 9.65-22.35 8.45-21.5 8.45-20.1L8.45-20.1Q8.45-19 9.25-18.25 10.05-17.5 11.2-17.07 12.35-16.65 14.6-16L14.6-16Q17.6-15.2 19.53-14.38 21.45-13.55 22.85-11.95 24.25-10.35 24.3-7.7L24.3-7.7Q24.3-5.35 23-3.5 21.7-1.65 19.33-0.6 16.95 0.45 13.75 0.45L13.75 0.45ZM61.85-27.55L67.45-27.55 58.9 0 52.9 0 47.35-20.35 41.8 0 35.8 0 27.2-27.55 33-27.55 38.75-5.4 44.6-27.55 50.55-27.55 56.15-5.5 61.85-27.55ZM74.6-31.2Q73.05-31.2 72-32.25 70.95-33.3 70.95-34.85L70.95-34.85Q70.95-36.4 72-37.45 73.05-38.5 74.6-38.5L74.6-38.5Q76.1-38.5 77.15-37.45 78.2-36.4 78.2-34.85L78.2-34.85Q78.2-33.3 77.15-32.25 76.1-31.2 74.6-31.2L74.6-31.2ZM71.7-27.55L77.4-27.55 77.4 0 71.7 0 71.7-27.55ZM98.24-22.9L91.54-22.9 91.54-7.65Q91.54-6.1 92.27-5.43 92.99-4.75 94.74-4.75L94.74-4.75 98.24-4.75 98.24 0 93.74 0Q89.89 0 87.84-1.8 85.79-3.6 85.79-7.65L85.79-7.65 85.79-22.9 82.54-22.9 82.54-27.55 85.79-27.55 85.79-34.4 91.54-34.4 91.54-27.55 98.24-27.55 98.24-22.9ZM101.59-13.8Q101.59-18.05 103.32-21.28 105.04-24.5 108.09-26.25 111.14-28 115.09-28L115.09-28Q120.09-28 123.37-25.63 126.64-23.25 127.79-18.85L127.79-18.85 121.64-18.85Q120.89-20.9 119.24-22.05 117.59-23.2 115.09-23.2L115.09-23.2Q111.59-23.2 109.52-20.73 107.44-18.25 107.44-13.8L107.44-13.8Q107.44-9.35 109.52-6.85 111.59-4.35 115.09-4.35L115.09-4.35Q120.04-4.35 121.64-8.7L121.64-8.7 127.79-8.7Q126.59-4.5 123.29-2.02 119.99 0.45 115.09 0.45L115.09 0.45Q111.14 0.45 108.09-1.33 105.04-3.1 103.32-6.33 101.59-9.55 101.59-13.8L101.59-13.8ZM147.74-28Q150.89-28 153.36-26.65 155.84-25.3 157.26-22.65 158.69-20 158.69-16.25L158.69-16.25 158.69 0 153.04 0 153.04-15.4Q153.04-19.1 151.19-21.08 149.34-23.05 146.14-23.05L146.14-23.05Q142.94-23.05 141.06-21.08 139.19-19.1 139.19-15.4L139.19-15.4 139.19 0 133.49 0 133.49-37 139.19-37 139.19-24.35Q140.64-26.1 142.86-27.05 145.09-28 147.74-28L147.74-28ZM164.03-13.9Q164.03-18.05 165.76-21.25 167.49-24.45 170.46-26.23 173.44-28 177.09-28L177.09-28Q179.78-28 182.41-26.83 185.03-25.65 186.59-23.7L186.59-23.7 186.59-37 192.34-37 192.34 0 186.59 0 186.59-4.15Q185.19-2.15 182.71-0.85 180.24 0.45 177.03 0.45L177.03 0.45Q173.44 0.45 170.46-1.38 167.49-3.2 165.76-6.48 164.03-9.75 164.03-13.9L164.03-13.9ZM186.59-13.8Q186.59-16.65 185.41-18.75 184.24-20.85 182.34-21.95 180.44-23.05 178.24-23.05L178.24-23.05Q176.03-23.05 174.13-21.98 172.24-20.9 171.06-18.82 169.88-16.75 169.88-13.9L169.88-13.9Q169.88-11.05 171.06-8.9 172.24-6.75 174.16-5.63 176.09-4.5 178.24-4.5L178.24-4.5Q180.44-4.5 182.34-5.6 184.24-6.7 185.41-8.83 186.59-10.95 186.59-13.8L186.59-13.8ZM197.93-13.9Q197.93-18.05 199.66-21.25 201.38-24.45 204.36-26.23 207.33-28 210.93-28L210.93-28Q214.18-28 216.61-26.73 219.03-25.45 220.48-23.55L220.48-23.55 220.48-27.55 226.23-27.55 226.23 0 220.48 0 220.48-4.1Q219.03-2.15 216.53-0.85 214.03 0.45 210.83 0.45L210.83 0.45Q207.28 0.45 204.33-1.38 201.38-3.2 199.66-6.48 197.93-9.75 197.93-13.9L197.93-13.9ZM220.48-13.8Q220.48-16.65 219.31-18.75 218.13-20.85 216.23-21.95 214.33-23.05 212.13-23.05L212.13-23.05Q209.93-23.05 208.03-21.98 206.13-20.9 204.96-18.82 203.78-16.75 203.78-13.9L203.78-13.9Q203.78-11.05 204.96-8.9 206.13-6.75 208.06-5.63 209.98-4.5 212.13-4.5L212.13-4.5Q214.33-4.5 216.23-5.6 218.13-6.7 219.31-8.83 220.48-10.95 220.48-13.8L220.48-13.8ZM247.08-22.9L240.38-22.9 240.38-7.65Q240.38-6.1 241.11-5.43 241.83-4.75 243.58-4.75L243.58-4.75 247.08-4.75 247.08 0 242.58 0Q238.73 0 236.68-1.8 234.63-3.6 234.63-7.65L234.63-7.65 234.63-22.9 231.38-22.9 231.38-27.55 234.63-27.55 234.63-34.4 240.38-34.4 240.38-27.55 247.08-27.55 247.08-22.9ZM277.58-14.45Q277.58-12.9 277.38-11.65L277.38-11.65 256.33-11.65Q256.58-8.35 258.78-6.35 260.98-4.35 264.18-4.35L264.18-4.35Q268.78-4.35 270.68-8.2L270.68-8.2 276.83-8.2Q275.58-4.4 272.3-1.98 269.03 0.45 264.18 0.45L264.18 0.45Q260.23 0.45 257.1-1.33 253.98-3.1 252.2-6.33 250.43-9.55 250.43-13.8L250.43-13.8Q250.43-18.05 252.15-21.28 253.88-24.5 257-26.25 260.13-28 264.18-28L264.18-28Q268.08-28 271.13-26.3 274.18-24.6 275.88-21.53 277.58-18.45 277.58-14.45L277.58-14.45ZM256.38-16.25L271.63-16.25Q271.58-19.4 269.38-21.3 267.18-23.2 263.93-23.2L263.93-23.2Q260.98-23.2 258.88-21.33 256.78-19.45 256.38-16.25L256.38-16.25Z" opacity="1" transform="matrix(1,0,0,1,0,0)" fill="#085f63" class="undefined-text-0" data-fill-palette-color="primary" id="text-0"></path></svg></g></svg></g></svg></g></svg></g><g transform="matrix(1,0,0,1,159.099374381696,0)"><svg viewBox="0 0 77.32125123660794 77.32125123660795" height="77.32125123660795" width="77.32125123660794"><g><svg></svg></g><g id="icon-0"><svg viewBox="0 0 77.32125123660794 77.32125123660795" height="77.32125123660795" width="77.32125123660794"><g><path xmlns="http://www.w3.org/2000/svg" d="M23.196 77.321c-12.811 0-23.196-10.385-23.196-23.196v-30.929c0-12.811 10.385-23.196 23.196-23.196h30.929c12.811 0 23.196 10.385 23.196 23.196v30.929c0 12.811-10.385 23.196-23.196 23.196z" fill="#49beb7" fill-rule="nonzero" stroke="none" stroke-width="1" stroke-linecap="butt" stroke-linejoin="miter" stroke-miterlimit="10" stroke-dasharray="" stroke-dashoffset="0" font-family="none" font-weight="none" font-size="none" text-anchor="none" style="mix-blend-mode: normal" data-fill-palette-color="accent"></path></g><g transform="matrix(1,0,0,1,15.464250247321583,15.46425024732159)"><svg viewBox="0 0 46.39275074196477 46.39275074196477" height="46.39275074196477" width="46.39275074196477"><g><svg xmlns="http://www.w3.org/2000/svg" xmlns:xlink="http://www.w3.org/1999/xlink" version="1.1" x="0" y="0" viewBox="0 0 100 100" style="enable-background:new 0 0 100 100;" xml:space="preserve" height="46.39275074196477" width="46.39275074196477" class="icon-s-0" data-fill-palette-color="quaternary" id="s-0"><path d="M25 18.75V6.25C25 2.795 27.795 0 31.25 0s6.25 2.795 6.25 6.25v12.5c0 3.455-2.795 6.25-6.25 6.25S25 22.205 25 18.75z" fill="#ffffff" data-fill-palette-color="quaternary"></path><path d="M81.25 12.5v6.396c0 6.909-5.591 12.5-12.5 12.5s-12.5-5.591-12.5-12.5V12.5h-12.5v6.396c0 6.909-5.591 12.5-12.5 12.5s-12.5-5.591-12.5-12.5V12.5H0V100h100V12.5H81.25zM31.25 87.5h-12.5V75h12.5V87.5zM31.25 62.5h-12.5V50h12.5V62.5zM56.25 87.5h-12.5V75h12.5V87.5zM56.25 62.524h-12.5v-12.5h12.5V62.524zM68.75 87.5V75h12.5L68.75 87.5zM81.25 62.5h-12.5V50h12.5V62.5z" fill="#ffffff" data-fill-palette-color="quaternary"></path><path d="M62.5 18.75V6.25C62.5 2.795 65.295 0 68.75 0S75 2.795 75 6.25v12.5c0 3.455-2.795 6.25-6.25 6.25S62.5 22.205 62.5 18.75z" fill="#ffffff" data-fill-palette-color="quaternary"></path></svg></g></svg></g></svg></g></svg></g><g></g></svg></g><defs></defs></svg><rect width="395.52" height="146.4782287644961" fill="none" stroke="none" visibility="hidden"></rect></g></svg></g></svg>